<svg id="Layer_1" enable-background="new 0 0 511.874 511.874" height="512" viewBox="0 0 511.874 511.874" width="512" xmlns="http://www.w3.org/2000/svg"><g><path d="m343.965 485.385h-175.984c-30.38 0-55.008-24.628-55.008-55.008v-367.869c0-30.38 24.628-55.008 55.008-55.008h175.983c30.38 0 55.008 24.628 55.008 55.008v367.868c.001 30.381-24.627 55.009-55.007 55.009z" fill="#22b37f"/><path d="m343.965 7.5h-30c30.38 0 55.008 24.628 55.008 55.008v367.868c0 30.38-24.628 55.008-55.008 55.008h30c30.38 0 55.008-24.628 55.008-55.008v-367.868c0-30.38-24.628-55.008-55.008-55.008z" fill="#09a76d"/><g fill="#fea95c"><path d="m192.845 504.5c-8.284 0-15-6.716-15-15v-71.458h30v71.458c0 8.284-6.716 15-15 15z"/><path d="m255.973 504.5c-8.284 0-15-6.716-15-15v-71.458h30v71.458c0 8.284-6.716 15-15 15z"/><path d="m319.101 504.5c-8.284 0-15-6.716-15-15v-71.458h30v71.458c0 8.284-6.715 15-15 15z"/></g><path d="m194.024 7.641 52.836 33.591c5.559 3.534 12.662 3.529 18.216-.015l52.846-33.717z" fill="#fea95c"/><path d="m357.87 418.042h-203.794c-29.328 0-53.103-23.775-53.103-53.103v-84.177c0-25.803 20.918-46.721 46.721-46.721h216.559c25.803 0 46.721 20.918 46.721 46.721v84.177c-.001 29.328-23.776 53.103-53.104 53.103z" fill="#cbc4cc"/><path d="m364.252 234.042h-30c25.803 0 46.721 20.918 46.721 46.721v84.177c0 29.328-23.775 53.103-53.103 53.103h30c29.328 0 53.103-23.775 53.103-53.103v-84.177c0-25.803-20.918-46.721-46.721-46.721z" fill="#b5adb6"/><path d="m154.076 388.042c-12.739 0-23.103-10.364-23.103-23.103v-84.176c0-9.22 7.501-16.721 16.721-16.721h216.559c9.22 0 16.721 7.501 16.721 16.721v84.176c0 12.739-10.364 23.103-23.103 23.103z" fill="#685e68"/><g><g><path d="m348.161 292.042h-20.761c-2.551 0-4.62-2.068-4.62-4.62v-23.38h30v23.38c.001 2.552-2.068 4.62-4.619 4.62z" fill="#f3f0f3"/></g><g><path d="m184.546 292.043h-20.761c-2.551 0-4.62-2.068-4.62-4.62v-23.38h30v23.38c0 2.551-2.068 4.62-4.619 4.62z" fill="#f3f0f3"/></g></g><path d="m333.306 388.042h-154.666s0-66.658 77.333-66.658 77.333 66.658 77.333 66.658z" fill="#fe99a0"/><path d="m255.973 321.385c-5.368 0-10.351.332-15 .929 62.32 8.014 62.333 65.728 62.333 65.728h30s0-66.657-77.333-66.657z" fill="#fd8087"/><g><g><path d="m163.785 360.042h20.761c2.551 0 4.62 2.068 4.62 4.62v23.38h-30v-23.38c-.001-2.551 2.068-4.62 4.619-4.62z" fill="#f3f0f3"/></g><g><path d="m218.324 360.042h20.761c2.551 0 4.62 2.068 4.62 4.62v23.38h-30v-23.38c-.001-2.551 2.067-4.62 4.619-4.62z" fill="#f3f0f3"/></g><g><path d="m272.862 360.042h20.761c2.551 0 4.62 2.068 4.62 4.62v23.38h-30v-23.38c-.001-2.551 2.068-4.62 4.619-4.62z" fill="#f3f0f3"/></g><g><path d="m327.4 360.042h20.761c2.551 0 4.62 2.068 4.62 4.62v23.38h-30v-23.38c0-2.551 2.068-4.62 4.619-4.62z" fill="#f3f0f3"/></g></g><path d="m416.809 150.375c0 24.81-31.133 59.753-69.538 59.753s-69.538-34.943-69.538-59.753 31.133-44.923 69.538-44.923 69.538 20.113 69.538 44.923z" fill="#fea95c"/><path d="m347.27 105.452c-5.152 0-10.167.373-15 1.06 31.192 4.432 54.538 22.382 54.538 43.863 0 21.482-23.347 50.543-54.538 57.958 4.833 1.149 9.848 1.795 15 1.795 38.405 0 69.538-34.943 69.538-59.753.001-24.81-31.133-44.923-69.538-44.923z" fill="#fe9738"/><path d="m347.27 180.128c-9.753 0-20.153-4.5-28.532-12.345-8.35-7.818-10.99-15.497-11.007-17.41.675-3.42 14.333-14.922 39.539-14.922 25.205 0 38.863 11.501 39.544 14.994-.023 1.841-2.664 9.52-11.013 17.338-8.378 7.846-18.778 12.345-28.531 12.345z" fill="#f3f0f3"/><g><g><path d="m204.407 87.414c-29.999-10.411-59.942-16.039-91.698-17.226-9.95-.24-18.89-7.442-19.729-17.611-.314-11.121 9.822-18.502 20.302-18.339 35.908 1.269 69.785 7.632 103.7 19.481 9.821 3.651 16.572 14.204 12.224 24.449-4.49 9.168-15.443 12.632-24.799 9.246z" fill="#fea95c"/></g><g><path d="m216.982 53.718c-10.313-3.603-20.623-6.691-30.986-9.291.845.276 1.691.54 2.536.823 9.883 3.549 16.77 14.62 12.533 25.776-2.583 5.884-7.433 9.716-12.901 11.222 5.42 1.569 10.83 3.286 16.243 5.164 9.356 3.386 20.31-.078 24.8-9.246 4.347-10.244-2.403-20.797-12.225-24.448z" fill="#fe9738"/></g><g><path d="m307.539 87.414c29.999-10.411 59.942-16.039 91.698-17.226 9.95-.24 18.89-7.442 19.729-17.611.314-11.121-9.822-18.502-20.302-18.339-35.908 1.269-69.785 7.632-103.7 19.481-9.822 3.651-16.572 14.204-12.224 24.449 4.49 9.168 15.443 12.632 24.799 9.246z" fill="#fea95c"/></g><path d="m398.664 34.237c-8.409.297-16.704.885-24.917 1.746 8.696 2.56 16.23 11.169 16.376 22.737-.151 4.722-1.486 8.868-3.626 12.197 4.218-.322 8.461-.57 12.74-.73 9.95-.24 18.89-7.442 19.729-17.611.314-11.121-9.822-18.502-20.302-18.339z" fill="#fe9738"/></g><path d="m234.214 150.375c0 24.81-31.133 59.753-69.538 59.753s-69.538-34.943-69.538-59.753 31.133-44.923 69.538-44.923 69.538 20.113 69.538 44.923z" fill="#fea95c"/><path d="m164.676 105.452c-5.152 0-10.167.373-15 1.06 31.192 4.432 54.538 22.382 54.538 43.863 0 21.482-23.347 50.543-54.538 57.958 4.833 1.149 9.848 1.795 15 1.795 38.405 0 69.538-34.943 69.538-59.753s-31.133-44.923-69.538-44.923z" fill="#fe9738"/><path d="m164.676 180.128c-9.753 0-20.152-4.5-28.531-12.345-8.35-7.818-10.99-15.497-11.007-17.41.675-3.42 14.334-14.922 39.539-14.922s38.863 11.501 39.544 14.994c-.023 1.841-2.663 9.52-11.013 17.338-8.379 7.846-18.779 12.345-28.532 12.345z" fill="#f3f0f3"/><path d="m255.973 284.564c-23.623 0-39.378-23.395-35.865-47.592l9.182-63.253c1.661-11.44 13.527-19.719 26.683-19.719 13.156 0 25.022 8.279 26.683 19.719l9.182 63.253c3.513 24.197-12.242 47.592-35.865 47.592z" fill="#fe646f"/><path d="m291.838 236.972-9.182-63.253c-1.661-11.44-13.527-19.719-26.683-19.719-5.429 0-10.637 1.413-15 3.873 6.21 3.501 10.708 9.127 11.683 15.845l9.182 63.253c2.699 18.593-5.984 36.698-20.865 44.095 4.486 2.23 9.528 3.498 15 3.498 23.623 0 39.378-23.395 35.865-47.592z" fill="#fd4755"/><g><path d="m347.271 127.952c-26.491 0-45.168 12.213-46.897 20.969-.583 5.889 2.951 14.139 13.238 24.337 19.947 18.965 47.37 18.968 67.316-.001 10.297-10.195 13.776-18.361 13.249-24.248-1.716-8.792-20.39-21.057-46.906-21.057zm23.405 34.357c-7.004 6.558-15.535 10.319-23.405 10.319-11.498.532-26.757-10.352-31.278-20.741 13.697-11.811 48.995-11.767 62.553.023-1.123 2.398-3.498 6.305-7.87 10.399z"/><path d="m419.437 35.049c-6.034-6.235-15.243-9.073-24.109-8.171-11.699-16.895-30.637-26.878-51.363-26.878h-175.984c-20.669 0-39.649 9.994-51.353 26.871-15.728-1.91-31.769 9.485-31.145 25.916.732 11.459 9.004 20.859 19.99 23.869v39.98c-25.794 20.557-21.377 50.054.116 73.521-.071.414-.116.837-.116 1.272v55.366c-7.498 9.302-12 21.115-12 33.964v84.18c0 13.548 4.47 26.071 12.011 36.174-.07.192.027 29.051-.012 29.266-.083 35.447 29.774 63.888 65.126 62.5 4.331 25.334 40.17 25.316 44.491 0h18.637c4.331 25.334 40.169 25.316 44.491 0h18.637c4.331 25.334 40.17 25.316 44.491 0 35.354 1.387 65.209-27.052 65.126-62.5v-29.282c7.534-10.1 12-22.617 12-36.158v-84.18c0-12.852-4.503-24.666-12.003-33.968.009-.039 0-56.708.003-56.757 21.403-23.452 25.738-52.891 0-73.398v-39.993c18.349-4.779 27.028-27.543 12.966-41.594zm-127.26-20.02-31.135 19.865c-3.084 1.967-7.071 1.971-10.158.009l-31.13-19.792zm-191.704 37.134c-.108-6.473 6.477-10.486 12.625-10.427 12.694.451 25.32 1.575 37.527 3.341 9.852 1.114 11.916-13.122 2.147-14.846-5.792-.838-11.676-1.53-17.611-2.087 16.688-16.213 35.317-12.887 56.459-13.144l51.217 32.562c3.986 2.534 8.553 3.801 13.12 3.801 4.58 0 9.16-1.274 13.154-3.823l51-32.54c21.205.271 40.007-3.115 56.691 13.141-28.848 2.714-56.67 8.823-84.452 18.547-7.439 2.765-13.429 8.35-16.433 15.322-7.526 17.004 6.595 34.468 24.304 34.201 3.25 0 6.571-.558 9.819-1.727 26.731-9.273 53.479-14.65 81.433-16.391v29.217c-28.19-13.893-71.836-12.17-97.444 5-14.942 9.653-23.324 22.726-23.756 36.915-8.648-3.603-19.953-3.603-28.601 0-.432-14.189-8.814-27.262-23.756-36.915-25.608-17.169-69.255-18.893-97.444-4.999v-29.215c28.016 1.749 54.745 7.127 81.381 16.37 3.265 1.182 6.603 1.746 9.871 1.746 30.627-.958 36.041-38.607 7.73-49.574-10.39-3.629-20.931-6.797-31.329-9.415-4.019-1.012-8.093 1.425-9.104 5.442s1.425 8.093 5.442 9.104c9.94 2.503 20.022 5.532 29.967 9.003 5.781 2.149 10.393 8.307 7.948 14.28-2.694 5.25-9.283 7.53-15.514 5.277-30.694-10.652-61.401-16.421-93.976-17.639-6.521-.158-11.82-4.668-12.415-10.527zm196.129 425.717h-18.128v-52.34h18.128zm-63.129 0h-18.128v-52.34h18.128zm-79.4-67.34c-25.144 0-45.6-20.456-45.6-45.6v-84.18c0-21.626 17.594-39.22 39.22-39.22h64.476c-.197 5.088.343 10.149 1.532 15h-66.009c-13.355 0-24.22 10.865-24.22 24.22v84.18c0 16.873 13.727 30.6 30.6 30.6 27.084.004 62.521 0 89.631.002 23.37-.006 55.707-.001 79.077 0 3.068-.005 32.767.004 35.092-.002 16.873 0 30.6-13.727 30.6-30.6v-14.12c-.338-9.926-14.677-9.912-15 0v14.119c0 7.781-5.732 14.231-13.192 15.395v-15.672c0-6.683-5.437-12.12-12.12-12.12h-17.139c-25.076-51.803-125.143-51.657-150.095 0h-17.142c-6.683 0-12.12 5.437-12.12 12.12v15.672c-7.46-1.164-13.192-7.613-13.192-15.395v-84.18c0-5.084 4.136-9.22 9.22-9.22h3.972v15.883c0 6.683 5.437 12.12 12.12 12.12h20.761c6.683 0 12.12-5.437 12.12-12.12v-15.882h23.327c16.352 27.241 55.616 27.233 71.961 0h23.327v15.883c0 6.683 5.437 12.12 12.12 12.12h20.761c6.683 0 12.12-5.437 12.12-12.12v-15.883h3.972c5.084 0 9.22 4.136 9.22 9.22v33.958c.296 9.896 14.693 9.926 15 0v-33.958c0-13.355-10.865-24.22-24.22-24.22h-66.009c1.19-4.851 1.729-9.912 1.532-15h64.476c21.626 0 39.22 17.594 39.22 39.22v84.18c0 25.144-20.456 45.6-45.6 45.6zm-33.6-207.327c30.558 21.839 70.556 18.264 98.091-7.815l-4.521 31.142h-66.351c-9.918 0-19.214 2.689-27.22 7.358v-30.685zm154.761-28.417 9.182 63.253c1.569 10.81-1.446 21.831-8.066 29.481-3.763 4.349-10.353 9.533-20.377 9.533-21.105-.579-30.892-20.974-28.443-39.014 0 0 9.182-63.253 9.182-63.253 1.082-7.456 9.542-13.296 19.261-13.296 9.718 0 18.179 5.84 19.261 13.296zm-93.569 96.746v13h-15v-13zm163.616 108.998h-15v-12.998h15zm-30-15.878v15.878h-9.539v-15.878c0-6.683-5.437-12.12-12.12-12.12h-20.76c-6.683 0-12.12 5.437-12.12 12.12v15.878h-9.538v-15.878c0-6.683-5.437-12.12-12.12-12.12h-20.76c-6.683 0-12.12 5.437-12.12 12.12v15.878h-9.539v-15.878c0-2.317-.665-4.476-1.797-6.319 19.846-39.488 102.373-39.484 122.211-.001-1.133 1.844-1.798 4.003-1.798 6.32zm-39.539 15.878v-12.998h15v12.998zm-54.538 0v-12.998h15v12.998zm-39.539-12.998v12.998h-15v-12.998zm163.616-96v13h-15v-13zm46.192-37.644c-8.007-4.669-17.303-7.358-27.22-7.358h-66.351l-4.52-31.142c27.534 26.079 67.535 29.653 98.091 7.815zm-226.798-120.946c33.628 0 62.039 17.138 62.039 37.423 0 20.634-27.793 52.253-62.039 52.253s-62.039-31.619-62.039-52.253c.001-20.285 28.411-37.423 62.039-37.423zm-44.202 317.428v-15.038c16 10.907 30.996 10.485 49.872 10.198v52.34c-26.994 1.231-49.946-20.407-49.872-47.5zm79.871 59.12c-.314 9.908-14.685 9.913-15 0v-63.957h15zm63.129 0c-.314 9.908-14.685 9.913-15 0v-63.957h15zm63.129 0c-.314 9.908-14.685 9.913-15 0v-63.957h15zm17.361-11.62h-2.362v-52.34c18.919.283 33.846.714 49.872-10.198v15.038c0 26.191-21.313 47.5-47.51 47.5zm3.308-275.252c-34.246 0-62.039-31.619-62.039-52.253 0-20.286 28.41-37.423 62.039-37.423s62.039 17.138 62.039 37.423c-.001 20.635-27.794 52.253-62.039 52.253zm51.686-139.935c-32.507 1.216-63.25 6.995-93.97 17.668-6.137 2.222-12.726-.061-15.42-5.31-2.444-5.974 2.166-12.131 7.949-14.28 33.117-11.562 66.268-17.789 101.333-19.036 6.193-.099 12.713 3.972 12.625 10.427-.596 5.86-5.896 10.37-12.517 10.531z"/><path d="m131.018 173.258c9.753 9.132 22.021 14.37 33.657 14.37s23.904-5.238 33.658-14.37c10.296-10.195 13.776-18.361 13.249-24.248-1.716-8.793-20.39-21.058-46.906-21.058-26.491 0-45.168 12.213-46.897 20.969-.583 5.889 2.951 14.139 13.239 24.337zm33.657-30.306c17.507 0 27.639 5.941 31.275 8.958-4.529 10.367-19.82 21.267-31.276 20.717-11.495.533-26.758-10.352-31.278-20.74 3.661-3.012 13.819-8.935 31.279-8.935z"/><path d="m172.481 166.213c5.214-.122 8.004-4.415 7.5-9.346-.306-9.913-14.695-9.912-15 0-.505 4.93 2.286 9.226 7.5 9.346z"/><path d="m339.465 149.367c-5.214.122-8.004 4.415-7.5 9.346.306 9.913 14.695 9.912 15 0 .505-4.929-2.286-9.226-7.5-9.346z"/></g></g></svg>